{
  "accessors": [
    {
      "bufferView": 2,
      "componentType": 5126,
      "count": 2513,
      "max": [
        0.9783105850219727,
        0.37690380215644836,
        0.9783105850219727
      ],
      "min": [
        -0.9783105850219727,
        -1.4186818599700928,
        -0.9965530633926392
      ],
      "type": "VEC3"
    },
    {
      "bufferView": 2,
      "byteOffset": 30156,
      "componentType": 5126,
      "count": 2513,
      "max": [
        1.0,
        1.0,
        0.9971911907196045
      ],
      "min": [
        -1.0,
        -1.0,
        -1.0
      ],
      "type": "VEC3"
    },
    {
      "bufferView": 1,
      "componentType": 5126,
      "count": 2513,
      "max": [
        1.0,
        1.0
      ],
      "min": [
        0.0,
        0.0
      ],
      "type": "VEC2"
    },
    {
      "bufferView": 0,
      "componentType": 5125,
      "count": 4605,
      "type": "SCALAR"
    },
    {
      "bufferView": 2,
      "byteOffset": 60312,
      "componentType": 5126,
      "count": 321,
      "max": [
        0.9999998807907104,
        0.9782699942588806,
        0.9999999403953552
      ],
      "min": [
        -0.9999999403953552,
        -1.2060576677322388,
        -0.9999999403953552
      ],
      "type": "VEC3"
    },
    {
      "bufferView": 2,
      "byteOffset": 64164,
      "componentType": 5126,
      "count": 321,
      "max": [
        1.0,
        0.2411942481994629,
        1.0
      ],
      "min": [
        -1.0,
        -1.0,
        -1.0
      ],
      "type": "VEC3"
    },
    {
      "bufferView": 1,
      "byteOffset": 20104,
      "componentType": 5126,
      "count": 321,
      "max": [
        0.6250173449516296,
        1.0
      ],
      "min": [
        0.0,
        0.02126443386077881
      ],
      "type": "VEC2"
    },
    {
      "bufferView": 0,
      "byteOffset": 18420,
      "componentType": 5125,
      "count": 723,
      "type": "SCALAR"
    },
    {
      "bufferView": 2,
      "byteOffset": 68016,
      "componentType": 5126,
      "count": 1032,
      "max": [
        -0.4776098430156708,
        -1.2060565948486328,
        0.06849405169487
      ],
      "min": [
        -0.9440784454345703,
        -1.4186818599700928,
        -0.8786581754684448
      ],
      "type": "VEC3"
    },
    {
      "bufferView": 2,
      "byteOffset": 80400,
      "componentType": 5126,
      "count": 1032,
      "max": [
        1.0,
        0.9996824860572815,
        1.0
      ],
      "min": [
        -1.0,
        -1.0,
        -1.0
      ],
      "type": "VEC3"
    },
    {
      "bufferView": 1,
      "byteOffset": 22672,
      "componentType": 5126,
      "count": 1032,
      "max": [
        0.9823373556137085,
        1.0
      ],
      "min": [
        0.0,
        0.03580820560455322
      ],
      "type": "VEC2"
    },
    {
      "bufferView": 0,
      "byteOffset": 21312,
      "componentType": 5125,
      "count": 1638,
      "type": "SCALAR"
    },
    {
      "bufferView": 2,
      "byteOffset": 92784,
      "componentType": 5126,
      "count": 9887,
      "max": [
        0.9999999403953552,
        0.9791650772094727,
        1.0126416683197021
      ],
      "min": [
        -0.9999999403953552,
        -1.9012235403060913,
        -1.0121872425079346
      ],
      "type": "VEC3"
    },
    {
      "bufferView": 2,
      "byteOffset": 211428,
      "componentType": 5126,
      "count": 9887,
      "max": [
        1.0,
        1.0,
        1.0
      ],
      "min": [
        -1.0,
        -1.0,
        -1.0
      ],
      "type": "VEC3"
    },
    {
      "bufferView": 1,
      "byteOffset": 30928,
      "componentType": 5126,
      "count": 9887,
      "max": [
        1.0,
        1.0
      ],
      "min": [
        0.0,
        0.0
      ],
      "type": "VEC2"
    },
    {
      "bufferView": 0,
      "byteOffset": 27864,
      "componentType": 5125,
      "count": 17688,
      "type": "SCALAR"
    },
    {
      "bufferView": 2,
      "byteOffset": 330072,
      "componentType": 5126,
      "count": 5815,
      "max": [
        0.9999999403953552,
        1.001322627067566,
        0.9783107042312622
      ],
      "min": [
        -0.9783106446266174,
        -1.9512234926223755,
        -0.9783107042312622
      ],
      "type": "VEC3"
    },
    {
      "bufferView": 2,
      "byteOffset": 399852,
      "componentType": 5126,
      "count": 5815,
      "max": [
        1.0,
        1.0,
        1.0
      ],
      "min": [
        -0.9997095465660095,
        -1.0,
        -1.0
      ],
      "type": "VEC3"
    },
    {
      "bufferView": 1,
      "byteOffset": 110024,
      "componentType": 5126,
      "count": 5815,
      "max": [
        0.875,
        1.0
      ],
      "min": [
        0.0,
        0.24999958276748657
      ],
      "type": "VEC2"
    },
    {
      "bufferView": 0,
      "byteOffset": 98616,
      "componentType": 5125,
      "count": 10326,
      "type": "SCALAR"
    },
    {
      "bufferView": 2,
      "byteOffset": 469632,
      "componentType": 5126,
      "count": 78,
      "max": [
        0.965837836265564,
        1.001322627067566,
        0.9566213488578796
      ],
      "min": [
        -0.9658197164535522,
        0.9999990463256836,
        -0.9566213488578796
      ],
      "type": "VEC3"
    },
    {
      "bufferView": 2,
      "byteOffset": 470568,
      "componentType": 5126,
      "count": 78,
      "max": [
        0.0,
        1.0,
        0.0
      ],
      "min": [
        0.0,
        1.0,
        0.0
      ],
      "type": "VEC3"
    },
    {
      "bufferView": 1,
      "byteOffset": 156544,
      "componentType": 5126,
      "count": 78,
      "max": [
        0.999931812286377,
        0.9986402988433838
      ],
      "min": [
        6.80685043334961e-05,
        0.0014325380325317383
      ],
      "type": "VEC2"
    },
    {
      "bufferView": 0,
      "byteOffset": 139920,
      "componentType": 5125,
      "count": 234,
      "type": "SCALAR"
    },
    {
      "bufferView": 2,
      "byteOffset": 471504,
      "componentType": 5126,
      "count": 64,
      "max": [
        -0.8370134830474854,
        -1.335266351699829,
        -0.08732771873474121
      ],
      "min": [
        -0.9177613854408264,
        -1.3352664709091187,
        -0.2569398880004883
      ],
      "type": "VEC3"
    },
    {
      "bufferView": 2,
      "byteOffset": 472272,
      "componentType": 5126,
      "count": 64,
      "max": [
        0.0,
        -1.0,
        0.0
      ],
      "min": [
        0.0,
        -1.0,
        0.0
      ],
      "type": "VEC3"
    },
    {
      "bufferView": 1,
      "byteOffset": 157168,
      "componentType": 5126,
      "count": 64,
      "max": [
        0.4535253047943115,
        0.23013198375701904
      ],
      "min": [
        0.4535253047943115,
        0.23013198375701904
      ],
      "type": "VEC2"
    },
    {
      "bufferView": 0,
      "byteOffset": 140856,
      "componentType": 5125,
      "count": 186,
      "type": "SCALAR"
    },
    {
      "bufferView": 2,
      "byteOffset": 473040,
      "componentType": 5126,
      "count": 804,
      "max": [
        -0.5436627864837646,
        -1.583693504333496,
        -0.07122699916362762
      ],
      "min": [
        -0.8626117706298828,
        -1.651224136352539,
        -0.7434734106063843
      ],
      "type": "VEC3"
    },
    {
      "bufferView": 2,
      "byteOffset": 482688,
      "componentType": 5126,
      "count": 804,
      "max": [
        0.9997095465660095,
        0.0,
        0.995017409324646
      ],
      "min": [
        -0.9997095465660095,
        -1.0,
        -0.995017409324646
      ],
      "type": "VEC3"
    },
    {
      "bufferView": 1,
      "byteOffset": 157680,
      "componentType": 5126,
      "count": 804,
      "max": [
        0.0,
        1.0
      ],
      "min": [
        0.0,
        1.0
      ],
      "type": "VEC2"
    },
    {
      "bufferView": 0,
      "byteOffset": 141600,
      "componentType": 5125,
      "count": 1554,
      "type": "SCALAR"
    },
    {
      "bufferView": 2,
      "byteOffset": 492336,
      "componentType": 5126,
      "count": 136,
      "max": [
        -0.7383594512939453,
        -1.6090322732925415,
        -0.2538861930370331
      ],
      "min": [
        -0.8947001099586487,
        -1.9090323448181152,
        -0.7760720252990723
      ],
      "type": "VEC3"
    },
    {
      "bufferView": 2,
      "byteOffset": 493968,
      "componentType": 5126,
      "count": 136,
      "max": [
        0.8341061472892761,
        0.0,
        0.5516040325164795
      ],
      "min": [
        0.0,
        -1.0,
        0.0
      ],
      "type": "VEC3"
    },
    {
      "bufferView": 1,
      "byteOffset": 164112,
      "componentType": 5126,
      "count": 136,
      "max": [
        0.0,
        1.0
      ],
      "min": [
        0.0,
        1.0
      ],
      "type": "VEC2"
    },
    {
      "bufferView": 0,
      "byteOffset": 147816,
      "componentType": 5125,
      "count": 390,
      "type": "SCALAR"
    },
    {
      "bufferView": 2,
      "byteOffset": 495600,
      "componentType": 5126,
      "count": 4416,
      "max": [
        -0.562645435333252,
        -1.613074541091919,
        -0.09663689136505127
      ],
      "min": [
        -0.8528679013252258,
        -1.8184322118759155,
        -0.703279972076416
      ],
      "type": "VEC3"
    },
    {
      "bufferView": 2,
      "byteOffset": 548592,
      "componentType": 5126,
      "count": 4416,
      "max": [
        0.9933298826217651,
        -0.1128033921122551,
        0.9677086472511292
      ],
      "min": [
        -0.9933298826217651,
        -0.8550330400466919,
        -0.9676992893218994
      ],
      "type": "VEC3"
    },
    {
      "bufferView": 1,
      "byteOffset": 165200,
      "componentType": 5126,
      "count": 4416,
      "max": [
        0.0,
        1.0
      ],
      "min": [
        0.0,
        1.0
      ],
      "type": "VEC2"
    },
    {
      "bufferView": 0,
      "byteOffset": 149376,
      "componentType": 5125,
      "count": 6336,
      "type": "SCALAR"
    },
    {
      "bufferView": 2,
      "byteOffset": 601584,
      "componentType": 5126,
      "count": 192,
      "max": [
        -0.5111848711967468,
        -1.9512228965759277,
        0.00041475892066955566
      ],
      "min": [
        -0.9117797017097473,
        -1.9512234926223755,
        -0.8122194409370422
      ],
      "type": "VEC3"
    },
    {
      "bufferView": 2,
      "byteOffset": 603888,
      "componentType": 5126,
      "count": 192,
      "max": [
        0.0,
        1.0,
        0.0
      ],
      "min": [
        0.0,
        1.0,
        0.0
      ],
      "type": "VEC3"
    },
    {
      "bufferView": 1,
      "byteOffset": 200528,
      "componentType": 5126,
      "count": 192,
      "max": [
        0.0,
        1.0
      ],
      "min": [
        0.0,
        1.0
      ],
      "type": "VEC2"
    },
    {
      "bufferView": 0,
      "byteOffset": 174720,
      "componentType": 5125,
      "count": 558,
      "type": "SCALAR"
    },
    {
      "bufferView": 2,
      "byteOffset": 606192,
      "componentType": 5126,
      "count": 1639,
      "max": [
        0.9995537996292114,
        0.11350086331367493,
        0.17667753994464874
      ],
      "min": [
        0.995553731918335,
        -0.11350037902593613,
        -0.18933041393756866
      ],
      "type": "VEC3"
    },
    {
      "bufferView": 2,
      "byteOffset": 625860,
      "componentType": 5126,
      "count": 1639,
      "max": [
        1.0,
        0.8267199993133545,
        0.9999663829803467
      ],
      "min": [
        -0.9665250778198242,
        -0.8267199993133545,
        -0.9999663829803467
      ],
      "type": "VEC3"
    },
    {
      "bufferView": 1,
      "byteOffset": 202064,
      "componentType": 5126,
      "count": 1639,
      "max": [
        0.5041701793670654,
        0.3629719018936157
      ],
      "min": [
        0.49583005905151367,
        0.332790732383728
      ],
      "type": "VEC2"
    },
    {
      "bufferView": 0,
      "byteOffset": 176952,
      "componentType": 5125,
      "count": 3240,
      "type": "SCALAR"
    }
  ],
  "asset": {
    "extras": {
      "author": "shig0 (https://sketchfab.com/shig0)",
      "license": "CC-BY-4.0 (http://creativecommons.org/licenses/by/4.0/)",
      "source": "https://sketchfab.com/3d-models/iphone-16-pro-max-56f0840754654be3a9e4679c84d4ed64",
      "title": "Iphone 16 Pro Max"
    },
    "generator": "Sketchfab-16.67.0",
    "version": "2.0"
  },
  "bufferViews": [
    {
      "buffer": 0,
      "byteLength": 189912,
      "name": "floatBufferViews",
      "target": 34963
    },
    {
      "buffer": 0,
      "byteLength": 215176,
      "byteOffset": 189912,
      "byteStride": 8,
      "name": "floatBufferViews",
      "target": 34962
    },
    {
      "buffer": 0,
      "byteLength": 645528,
      "byteOffset": 405088,
      "byteStride": 12,
      "name": "floatBufferViews",
      "target": 34962
    }
  ],
  "buffers": [
    {
      "byteLength": 1050616,
      "uri": "scene.bin"
    }
  ],
  "extensionsUsed": [
    "KHR_materials_transmission",
    "KHR_materials_emissive_strength",
    "KHR_materials_specular"
  ],
  "images": [
    {
      "uri": "textures/wallpaper_emissive.jpeg"
    },
    {
      "uri": "textures/wallpaper_specularf0.png"
    }
  ],
  "materials": [
    {
      "doubleSided": true,
      "name": "ana_renk",
      "pbrMetallicRoughness": {
        "baseColorFactor": [
          0.520992,
          0.371238,
          0.274677,
          1.0
        ],
        "roughnessFactor": 0.5
      }
    },
    {
      "doubleSided": true,
      "name": "logo",
      "pbrMetallicRoughness": {
        "baseColorFactor": [
          0.520992,
          0.371238,
          0.274677,
          1.0
        ],
        "roughnessFactor": 0.1
      }
    },
    {
      "alphaMode": "BLEND",
      "doubleSided": true,
      "extensions": {
        "KHR_materials_transmission": {
          "transmissionFactor": 1.0
        }
      },
      "name": "cam_materyal",
      "pbrMetallicRoughness": {
        "baseColorFactor": [
          1.0,
          1.0,
          1.0,
          0.25
        ]
      }
    },
    {
      "doubleSided": true,
      "name": "ereve",
      "pbrMetallicRoughness": {
        "baseColorFactor": [
          0.2,
          0.146089,
          0.1,
          1.0
        ],
        "roughnessFactor": 0.5
      }
    },
    {
      "doubleSided": true,
      "name": "kamera",
      "pbrMetallicRoughness": {
        "baseColorFactor": [
          0.0,
          0.0,
          0.0,
          1.0
        ],
        "roughnessFactor": 0.5
      }
    },
    {
      "doubleSided": true,
      "emissiveFactor": [
        1.0,
        1.0,
        1.0
      ],
      "emissiveTexture": {
        "index": 0
      },
      "extensions": {
        "KHR_materials_emissive_strength": {
          "emissiveStrength": 3.0
        },
        "KHR_materials_specular": {
          "specularColorFactor": [
            1.0,
            1.0,
            1.0
          ],
          "specularFactor": 1.0,
          "specularTexture": {
            "index": 1
          }
        }
      },
      "name": "wallpaper",
      "pbrMetallicRoughness": {
        "baseColorFactor": [
          0.0,
          0.0,
          0.0,
          1.0
        ],
        "metallicFactor": 0.0
      }
    },
    {
      "doubleSided": true,
      "name": "flas",
      "pbrMetallicRoughness": {
        "metallicFactor": 0.0,
        "roughnessFactor": 0.5
      }
    },
    {
      "doubleSided": true,
      "name": "kamera2",
      "pbrMetallicRoughness": {
        "baseColorFactor": [
          0.0309715,
          0.0292717,
          0.05,
          1.0
        ]
      }
    },
    {
      "doubleSided": true,
      "name": "kamera1",
      "pbrMetallicRoughness": {
        "baseColorFactor": [
          0.00668347,
          0.00585434,
          0.01,
          1.0
        ],
        "roughnessFactor": 0.5
      }
    },
    {
      "doubleSided": true,
      "extensions": {
        "KHR_materials_specular": {
          "specularColorFactor": [
            1.0,
            1.0,
            1.0
          ],
          "specularFactor": 1.0
        }
      },
      "name": "lens",
      "pbrMetallicRoughness": {
        "baseColorFactor": [
          0.0,
          0.0016460807970228078,
          0.01,
          1.0
        ]
      }
    },
    {
      "alphaMode": "BLEND",
      "doubleSided": true,
      "extensions": {
        "KHR_materials_specular": {
          "specularColorFactor": [
            1.0,
            1.0,
            1.0
          ],
          "specularFactor": 0.1
        },
        "KHR_materials_transmission": {
          "transmissionFactor": 1.0
        }
      },
      "name": "glass",
      "pbrMetallicRoughness": {
        "baseColorFactor": [
          1.0,
          1.0,
          1.0,
          0.25
        ]
      }
    },
    {
      "doubleSided": true,
      "name": "screw",
      "pbrMetallicRoughness": {
        "baseColorFactor": [
          0.2,
          0.2,
          0.2,
          1.0
        ],
        "roughnessFactor": 0.0
      }
    }
  ],
  "meshes": [
    {
      "name": "Object_0",
      "primitives": [
        {
          "attributes": {
            "NORMAL": 1,
            "POSITION": 0,
            "TEXCOORD_0": 2
          },
          "indices": 3,
          "material": 0,
          "mode": 4
        }
      ]
    },
    {
      "name": "Object_1",
      "primitives": [
        {
          "attributes": {
            "NORMAL": 5,
            "POSITION": 4,
            "TEXCOORD_0": 6
          },
          "indices": 7,
          "material": 1,
          "mode": 4
        }
      ]
    },
    {
      "name": "Object_2",
      "primitives": [
        {
          "attributes": {
            "NORMAL": 9,
            "POSITION": 8,
            "TEXCOORD_0": 10
          },
          "indices": 11,
          "material": 2,
          "mode": 4
        }
      ]
    },
    {
      "name": "Object_3",
      "primitives": [
        {
          "attributes": {
            "NORMAL": 13,
            "POSITION": 12,
            "TEXCOORD_0": 14
          },
          "indices": 15,
          "material": 3,
          "mode": 4
        }
      ]
    },
    {
      "name": "Object_4",
      "primitives": [
        {
          "attributes": {
            "NORMAL": 17,
            "POSITION": 16,
            "TEXCOORD_0": 18
          },
          "indices": 19,
          "material": 4,
          "mode": 4
        }
      ]
    },
    {
      "name": "Object_5",
      "primitives": [
        {
          "attributes": {
            "NORMAL": 21,
            "POSITION": 20,
            "TEXCOORD_0": 22
          },
          "indices": 23,
          "material": 5,
          "mode": 4
        }
      ]
    },
    {
      "name": "Object_6",
      "primitives": [
        {
          "attributes": {
            "NORMAL": 25,
            "POSITION": 24,
            "TEXCOORD_0": 26
          },
          "indices": 27,
          "material": 6,
          "mode": 4
        }
      ]
    },
    {
      "name": "Object_7",
      "primitives": [
        {
          "attributes": {
            "NORMAL": 29,
            "POSITION": 28,
            "TEXCOORD_0": 30
          },
          "indices": 31,
          "material": 7,
          "mode": 4
        }
      ]
    },
    {
      "name": "Object_8",
      "primitives": [
        {
          "attributes": {
            "NORMAL": 33,
            "POSITION": 32,
            "TEXCOORD_0": 34
          },
          "indices": 35,
          "material": 8,
          "mode": 4
        }
      ]
    },
    {
      "name": "Object_9",
      "primitives": [
        {
          "attributes": {
            "NORMAL": 37,
            "POSITION": 36,
            "TEXCOORD_0": 38
          },
          "indices": 39,
          "material": 9,
          "mode": 4
        }
      ]
    },
    {
      "name": "Object_10",
      "primitives": [
        {
          "attributes": {
            "NORMAL": 41,
            "POSITION": 40,
            "TEXCOORD_0": 42
          },
          "indices": 43,
          "material": 10,
          "mode": 4
        }
      ]
    },
    {
      "name": "Object_11",
      "primitives": [
        {
          "attributes": {
            "NORMAL": 45,
            "POSITION": 44,
            "TEXCOORD_0": 46
          },
          "indices": 47,
          "material": 11,
          "mode": 4
        }
      ]
    }
  ],
  "nodes": [
    {
      "children": [
        1
      ],
      "matrix": [
        0.7004150152206421,
        -0.20603398978710188,
        0.6833511590957642,
        0.0,
        0.7073774337768555,
        0.0728739202022554,
        -0.7030693888664246,
        0.0,
        0.09505771100521088,
        0.9758275151252747,
        0.19678577780723594,
        0.0,
        0.0,
        0.0,
        0.0,
        1.0
      ],
      "name": "Sketchfab_model"
    },
    {
      "children": [
        2
      ],
      "name": "root"
    },
    {
      "children": [
        3
      ],
      "matrix": [
        1.0,
        0.0,
        0.0,
        0.0,
        0.0,
        2.220446049250313e-16,
        1.0,
        0.0,
        0.0,
        -1.0,
        2.220446049250313e-16,
        0.0,
        0.0,
        0.0,
        0.0,
        1.0
      ],
      "name": "GLTF_SceneRootNode"
    },
    {
      "children": [
        4,
        5,
        6,
        7,
        8,
        9,
        10,
        11,
        12,
        13,
        14,
        15
      ],
      "matrix": [
        0.1393733188315324,
        -0.7058106386708424,
        0.38292481827470876,
        0.0,
        -0.012218172345027633,
        -0.020625004510391284,
        -0.03356914925024365,
        0.0,
        0.3646007380519707,
        2.673501245682877e-08,
        -0.13270384580927894,
        0.0,
        0.0,
        0.0,
        0.0,
        1.0
      ],
      "name": "case_2"
    },
    {
      "mesh": 0,
      "name": "Object_4"
    },
    {
      "mesh": 1,
      "name": "Object_5"
    },
    {
      "mesh": 2,
      "name": "Object_6"
    },
    {
      "mesh": 3,
      "name": "Object_7"
    },
    {
      "mesh": 4,
      "name": "Object_8"
    },
    {
      "mesh": 5,
      "name": "Object_9"
    },
    {
      "mesh": 6,
      "name": "Object_10"
    },
    {
      "mesh": 7,
      "name": "Object_11"
    },
    {
      "mesh": 8,
      "name": "Object_12"
    },
    {
      "mesh": 9,
      "name": "Object_13"
    },
    {
      "mesh": 10,
      "name": "Object_14"
    },
    {
      "mesh": 11,
      "name": "Object_15"
    }
  ],
  "samplers": [
    {
      "magFilter": 9729,
      "minFilter": 9987,
      "wrapS": 10497,
      "wrapT": 10497
    }
  ],
  "scene": 0,
  "scenes": [
    {
      "name": "Sketchfab_Scene",
      "nodes": [
        0
      ]
    }
  ],
  "textures": [
    {
      "sampler": 0,
      "source": 0
    },
    {
      "sampler": 0,
      "source": 1
    }
  ]
}
